<mxfile host="app.diagrams.net" modified="2021-08-28T10:46:08.757Z" agent="5.0 (Windows NT 10.0; Win64; x64) AppleWebKit/537.36 (KHTML, like Gecko) Chrome/92.0.4515.159 Safari/537.36" etag="lpDhejmUjntoJIlNskEk" version="15.0.3" type="github">
  <diagram name="Page-1" id="8378b5f6-a2b2-b727-a746-972ab9d02e00">
    <mxGraphModel dx="1669" dy="896" grid="1" gridSize="10" guides="1" tooltips="1" connect="0" arrows="1" fold="1" page="1" pageScale="1.5" pageWidth="1169" pageHeight="827" background="none" math="0" shadow="0">
      <root>
        <mxCell id="0" />
        <mxCell id="1" parent="0" />
        <mxCell id="skjDx-Lhjb7W496M13Kj-549" value="4 week" style="fillColor=#23445D;strokeColor=#FFFFFF;strokeWidth=2;fontColor=#FFFFFF;fontStyle=1" vertex="1" parent="1">
          <mxGeometry x="1590" y="130" width="60" height="20" as="geometry" />
        </mxCell>
        <mxCell id="skjDx-Lhjb7W496M13Kj-550" value="3 week" style="fillColor=#23445D;strokeColor=#FFFFFF;strokeWidth=2;fontColor=#FFFFFF;fontStyle=1" vertex="1" parent="1">
          <mxGeometry x="1530" y="130" width="60" height="20" as="geometry" />
        </mxCell>
        <mxCell id="skjDx-Lhjb7W496M13Kj-551" value="2 week" style="fillColor=#23445D;strokeColor=#FFFFFF;strokeWidth=2;fontColor=#FFFFFF;fontStyle=1" vertex="1" parent="1">
          <mxGeometry x="1470" y="130" width="60" height="20" as="geometry" />
        </mxCell>
        <mxCell id="skjDx-Lhjb7W496M13Kj-552" value="December" style="fillColor=#23445D;strokeColor=#FFFFFF;strokeWidth=2;fontColor=#FFFFFF;fontStyle=1" vertex="1" parent="1">
          <mxGeometry x="1410" y="110" width="240" height="20" as="geometry" />
        </mxCell>
        <mxCell id="skjDx-Lhjb7W496M13Kj-553" value="1 week" style="fillColor=#23445D;strokeColor=#FFFFFF;strokeWidth=2;fontColor=#FFFFFF;fontStyle=1" vertex="1" parent="1">
          <mxGeometry x="1410" y="130" width="60" height="20" as="geometry" />
        </mxCell>
        <mxCell id="skjDx-Lhjb7W496M13Kj-554" value="4 week" style="fillColor=#23445D;strokeColor=#FFFFFF;strokeWidth=2;fontColor=#FFFFFF;fontStyle=1" vertex="1" parent="1">
          <mxGeometry x="1350" y="130" width="60" height="20" as="geometry" />
        </mxCell>
        <mxCell id="skjDx-Lhjb7W496M13Kj-555" value="3 week" style="fillColor=#23445D;strokeColor=#FFFFFF;strokeWidth=2;fontColor=#FFFFFF;fontStyle=1" vertex="1" parent="1">
          <mxGeometry x="1290" y="130" width="60" height="20" as="geometry" />
        </mxCell>
        <mxCell id="skjDx-Lhjb7W496M13Kj-556" value="2 week" style="fillColor=#23445D;strokeColor=#FFFFFF;strokeWidth=2;fontColor=#FFFFFF;fontStyle=1" vertex="1" parent="1">
          <mxGeometry x="1230" y="130" width="60" height="20" as="geometry" />
        </mxCell>
        <mxCell id="skjDx-Lhjb7W496M13Kj-557" value="Nobember" style="fillColor=#23445D;strokeColor=#FFFFFF;strokeWidth=2;fontColor=#FFFFFF;fontStyle=1" vertex="1" parent="1">
          <mxGeometry x="1170" y="110" width="240" height="20" as="geometry" />
        </mxCell>
        <mxCell id="skjDx-Lhjb7W496M13Kj-558" value="1 week" style="fillColor=#23445D;strokeColor=#FFFFFF;strokeWidth=2;fontColor=#FFFFFF;fontStyle=1" vertex="1" parent="1">
          <mxGeometry x="1170" y="130" width="60" height="20" as="geometry" />
        </mxCell>
        <mxCell id="skjDx-Lhjb7W496M13Kj-559" value="4 week" style="fillColor=#23445D;strokeColor=#FFFFFF;strokeWidth=2;fontColor=#FFFFFF;fontStyle=1" vertex="1" parent="1">
          <mxGeometry x="1110" y="130" width="60" height="20" as="geometry" />
        </mxCell>
        <mxCell id="skjDx-Lhjb7W496M13Kj-560" value="3 week" style="fillColor=#23445D;strokeColor=#FFFFFF;strokeWidth=2;fontColor=#FFFFFF;fontStyle=1" vertex="1" parent="1">
          <mxGeometry x="1050" y="130" width="60" height="20" as="geometry" />
        </mxCell>
        <mxCell id="skjDx-Lhjb7W496M13Kj-561" value="2 week" style="fillColor=#23445D;strokeColor=#FFFFFF;strokeWidth=2;fontColor=#FFFFFF;fontStyle=1" vertex="1" parent="1">
          <mxGeometry x="990" y="130" width="60" height="20" as="geometry" />
        </mxCell>
        <mxCell id="skjDx-Lhjb7W496M13Kj-562" value="October" style="fillColor=#23445D;strokeColor=#FFFFFF;strokeWidth=2;fontColor=#FFFFFF;fontStyle=1" vertex="1" parent="1">
          <mxGeometry x="930" y="110" width="240" height="20" as="geometry" />
        </mxCell>
        <mxCell id="skjDx-Lhjb7W496M13Kj-563" value="1 week" style="fillColor=#23445D;strokeColor=#FFFFFF;strokeWidth=2;fontColor=#FFFFFF;fontStyle=1" vertex="1" parent="1">
          <mxGeometry x="930" y="130" width="60" height="20" as="geometry" />
        </mxCell>
        <mxCell id="skjDx-Lhjb7W496M13Kj-564" value="4 week" style="fillColor=#23445D;strokeColor=#FFFFFF;strokeWidth=2;fontColor=#FFFFFF;fontStyle=1" vertex="1" parent="1">
          <mxGeometry x="870" y="130" width="60" height="20" as="geometry" />
        </mxCell>
        <mxCell id="skjDx-Lhjb7W496M13Kj-565" value="3 week" style="fillColor=#23445D;strokeColor=#FFFFFF;strokeWidth=2;fontColor=#FFFFFF;fontStyle=1" vertex="1" parent="1">
          <mxGeometry x="810" y="130" width="60" height="20" as="geometry" />
        </mxCell>
        <mxCell id="skjDx-Lhjb7W496M13Kj-566" value="2 week" style="fillColor=#23445D;strokeColor=#FFFFFF;strokeWidth=2;fontColor=#FFFFFF;fontStyle=1" vertex="1" parent="1">
          <mxGeometry x="750" y="130" width="60" height="20" as="geometry" />
        </mxCell>
        <mxCell id="skjDx-Lhjb7W496M13Kj-567" value="〇" style="strokeColor=#DEEDFF;fillColor=#ADC3D9" vertex="1" parent="1">
          <mxGeometry x="90" y="150" width="40" height="20" as="geometry" />
        </mxCell>
        <mxCell id="skjDx-Lhjb7W496M13Kj-568" value="Algorithm" style="align=left;strokeColor=#DEEDFF;fillColor=#ADC3D9" vertex="1" parent="1">
          <mxGeometry x="130" y="150" width="320" height="20" as="geometry" />
        </mxCell>
        <mxCell id="skjDx-Lhjb7W496M13Kj-569" value="Robot team" style="strokeColor=#DEEDFF;fillColor=#ADC3D9" vertex="1" parent="1">
          <mxGeometry x="450.00000000000176" y="150" width="80.00000000000028" height="20" as="geometry" />
        </mxCell>
        <mxCell id="skjDx-Lhjb7W496M13Kj-570" value="4 month" style="strokeColor=#DEEDFF;fillColor=#ADC3D9" vertex="1" parent="1">
          <mxGeometry x="530.000000000002" y="150" width="80.00000000000028" height="20" as="geometry" />
        </mxCell>
        <mxCell id="skjDx-Lhjb7W496M13Kj-571" value="9/1" style="strokeColor=#DEEDFF;fillColor=#ADC3D9" vertex="1" parent="1">
          <mxGeometry x="610.0000000000016" y="150.00000000000023" width="80.00000000000028" height="20" as="geometry" />
        </mxCell>
        <mxCell id="skjDx-Lhjb7W496M13Kj-572" value="" style="strokeColor=#DEEDFF" vertex="1" parent="1">
          <mxGeometry x="690" y="150" width="20" height="660" as="geometry" />
        </mxCell>
        <mxCell id="skjDx-Lhjb7W496M13Kj-573" value="1" style="strokeColor=#DEEDFF;fillColor=#CCE5FF" vertex="1" parent="1">
          <mxGeometry x="90.00000000000026" y="169.9999999999999" width="40" height="20" as="geometry" />
        </mxCell>
        <mxCell id="skjDx-Lhjb7W496M13Kj-574" value="JammingDecider" style="align=left;strokeColor=#DEEDFF;fillColor=#CCE5FF" vertex="1" parent="1">
          <mxGeometry x="130.00000000000026" y="169.9999999999999" width="319.9999999999998" height="20" as="geometry" />
        </mxCell>
        <mxCell id="skjDx-Lhjb7W496M13Kj-575" value="Nishiyama" style="strokeColor=#DEEDFF;fillColor=#CCE5FF" vertex="1" parent="1">
          <mxGeometry x="450.000000000002" y="169.99999999999983" width="80.00000000000028" height="20" as="geometry" />
        </mxCell>
        <mxCell id="skjDx-Lhjb7W496M13Kj-576" value="4 month" style="strokeColor=#DEEDFF;fillColor=#CCE5FF" vertex="1" parent="1">
          <mxGeometry x="530.0000000000023" y="169.99999999999983" width="80.00000000000028" height="20" as="geometry" />
        </mxCell>
        <mxCell id="skjDx-Lhjb7W496M13Kj-577" value="9/1" style="strokeColor=#DEEDFF;fillColor=#CCE5FF" vertex="1" parent="1">
          <mxGeometry x="610.0000000000018" y="170.0000000000001" width="80.00000000000028" height="20" as="geometry" />
        </mxCell>
        <mxCell id="skjDx-Lhjb7W496M13Kj-578" value="1-1" style="strokeColor=#DEEDFF" vertex="1" parent="1">
          <mxGeometry x="90.00000000000027" y="189.99999999999977" width="40" height="20" as="geometry" />
        </mxCell>
        <mxCell id="skjDx-Lhjb7W496M13Kj-579" value="" style="align=left;strokeColor=#DEEDFF" vertex="1" parent="1">
          <mxGeometry x="130.00000000000028" y="189.99999999999977" width="319.9999999999997" height="20.000000000000014" as="geometry" />
        </mxCell>
        <mxCell id="skjDx-Lhjb7W496M13Kj-580" value="" style="strokeColor=#DEEDFF" vertex="1" parent="1">
          <mxGeometry x="450.000000000002" y="189.99999999999972" width="80.00000000000028" height="20" as="geometry" />
        </mxCell>
        <mxCell id="skjDx-Lhjb7W496M13Kj-581" value="" style="strokeColor=#DEEDFF" vertex="1" parent="1">
          <mxGeometry x="530.0000000000023" y="189.99999999999972" width="80.00000000000028" height="20" as="geometry" />
        </mxCell>
        <mxCell id="skjDx-Lhjb7W496M13Kj-582" value="" style="strokeColor=#DEEDFF" vertex="1" parent="1">
          <mxGeometry x="610.0000000000018" y="190" width="80.00000000000028" height="20" as="geometry" />
        </mxCell>
        <mxCell id="skjDx-Lhjb7W496M13Kj-583" value="1-2" style="strokeColor=#DEEDFF" vertex="1" parent="1">
          <mxGeometry x="90" y="210.00000000000017" width="40" height="20" as="geometry" />
        </mxCell>
        <mxCell id="skjDx-Lhjb7W496M13Kj-584" value="" style="align=left;strokeColor=#DEEDFF" vertex="1" parent="1">
          <mxGeometry x="130" y="210.00000000000017" width="320" height="20" as="geometry" />
        </mxCell>
        <mxCell id="skjDx-Lhjb7W496M13Kj-585" value="" style="strokeColor=#DEEDFF" vertex="1" parent="1">
          <mxGeometry x="450.0000000000017" y="210.0000000000001" width="80.00000000000028" height="20" as="geometry" />
        </mxCell>
        <mxCell id="skjDx-Lhjb7W496M13Kj-586" value="" style="strokeColor=#DEEDFF" vertex="1" parent="1">
          <mxGeometry x="530.000000000002" y="210.0000000000001" width="80.00000000000028" height="20" as="geometry" />
        </mxCell>
        <mxCell id="skjDx-Lhjb7W496M13Kj-587" value="" style="strokeColor=#DEEDFF" vertex="1" parent="1">
          <mxGeometry x="610.0000000000015" y="210.0000000000004" width="80.00000000000028" height="20" as="geometry" />
        </mxCell>
        <mxCell id="skjDx-Lhjb7W496M13Kj-588" value="1-3" style="strokeColor=#DEEDFF" vertex="1" parent="1">
          <mxGeometry x="89.99999999999991" y="230.00000000000017" width="40" height="20" as="geometry" />
        </mxCell>
        <mxCell id="skjDx-Lhjb7W496M13Kj-589" value="" style="align=left;strokeColor=#DEEDFF" vertex="1" parent="1">
          <mxGeometry x="129.99999999999991" y="230.00000000000017" width="320.0000000000001" height="20" as="geometry" />
        </mxCell>
        <mxCell id="skjDx-Lhjb7W496M13Kj-590" value="" style="strokeColor=#DEEDFF" vertex="1" parent="1">
          <mxGeometry x="450.00000000000165" y="230.0000000000001" width="80.00000000000028" height="20" as="geometry" />
        </mxCell>
        <mxCell id="skjDx-Lhjb7W496M13Kj-591" value="" style="strokeColor=#DEEDFF" vertex="1" parent="1">
          <mxGeometry x="530.0000000000019" y="230.0000000000001" width="80.00000000000028" height="20" as="geometry" />
        </mxCell>
        <mxCell id="skjDx-Lhjb7W496M13Kj-592" value="" style="strokeColor=#DEEDFF" vertex="1" parent="1">
          <mxGeometry x="610.0000000000015" y="230.0000000000004" width="80.00000000000028" height="20" as="geometry" />
        </mxCell>
        <mxCell id="skjDx-Lhjb7W496M13Kj-593" value="1-4" style="strokeColor=#DEEDFF" vertex="1" parent="1">
          <mxGeometry x="89.9999999999999" y="250.00000000000045" width="40" height="20" as="geometry" />
        </mxCell>
        <mxCell id="skjDx-Lhjb7W496M13Kj-594" value="" style="align=left;strokeColor=#DEEDFF" vertex="1" parent="1">
          <mxGeometry x="129.9999999999999" y="250.00000000000045" width="320.0000000000001" height="20" as="geometry" />
        </mxCell>
        <mxCell id="skjDx-Lhjb7W496M13Kj-595" value="" style="strokeColor=#DEEDFF" vertex="1" parent="1">
          <mxGeometry x="450.00000000000165" y="250.00000000000034" width="80.00000000000028" height="20" as="geometry" />
        </mxCell>
        <mxCell id="skjDx-Lhjb7W496M13Kj-596" value="" style="strokeColor=#DEEDFF" vertex="1" parent="1">
          <mxGeometry x="530.0000000000019" y="250.00000000000034" width="80.00000000000028" height="20" as="geometry" />
        </mxCell>
        <mxCell id="skjDx-Lhjb7W496M13Kj-597" value="" style="strokeColor=#DEEDFF" vertex="1" parent="1">
          <mxGeometry x="610.0000000000015" y="250.00000000000068" width="80.00000000000028" height="20" as="geometry" />
        </mxCell>
        <mxCell id="skjDx-Lhjb7W496M13Kj-598" value="1-5" style="strokeColor=#DEEDFF" vertex="1" parent="1">
          <mxGeometry x="90.00000000000063" y="270.0000000000007" width="40" height="20" as="geometry" />
        </mxCell>
        <mxCell id="skjDx-Lhjb7W496M13Kj-599" value="" style="align=left;strokeColor=#DEEDFF" vertex="1" parent="1">
          <mxGeometry x="130.00000000000063" y="270.0000000000007" width="319.9999999999994" height="20" as="geometry" />
        </mxCell>
        <mxCell id="skjDx-Lhjb7W496M13Kj-600" value="" style="strokeColor=#DEEDFF" vertex="1" parent="1">
          <mxGeometry x="450.0000000000024" y="270.0000000000007" width="80.00000000000028" height="20" as="geometry" />
        </mxCell>
        <mxCell id="skjDx-Lhjb7W496M13Kj-601" value="" style="strokeColor=#DEEDFF" vertex="1" parent="1">
          <mxGeometry x="530.0000000000027" y="270.0000000000007" width="80.00000000000028" height="20" as="geometry" />
        </mxCell>
        <mxCell id="skjDx-Lhjb7W496M13Kj-602" value="" style="strokeColor=#DEEDFF" vertex="1" parent="1">
          <mxGeometry x="610.0000000000022" y="270.0000000000009" width="80.00000000000028" height="20" as="geometry" />
        </mxCell>
        <mxCell id="skjDx-Lhjb7W496M13Kj-603" value="1-6" style="strokeColor=#DEEDFF" vertex="1" parent="1">
          <mxGeometry x="90.00000000000064" y="290.00000000000057" width="40" height="20" as="geometry" />
        </mxCell>
        <mxCell id="skjDx-Lhjb7W496M13Kj-604" value="" style="align=left;strokeColor=#DEEDFF" vertex="1" parent="1">
          <mxGeometry x="130.00000000000063" y="290.00000000000057" width="319.9999999999994" height="20" as="geometry" />
        </mxCell>
        <mxCell id="skjDx-Lhjb7W496M13Kj-605" value="" style="strokeColor=#DEEDFF" vertex="1" parent="1">
          <mxGeometry x="450.0000000000024" y="290.00000000000057" width="80.00000000000028" height="20" as="geometry" />
        </mxCell>
        <mxCell id="skjDx-Lhjb7W496M13Kj-606" value="" style="strokeColor=#DEEDFF" vertex="1" parent="1">
          <mxGeometry x="530.0000000000027" y="290.00000000000057" width="80.00000000000028" height="20" as="geometry" />
        </mxCell>
        <mxCell id="skjDx-Lhjb7W496M13Kj-607" value="" style="strokeColor=#DEEDFF" vertex="1" parent="1">
          <mxGeometry x="610.0000000000022" y="290.0000000000008" width="80.00000000000028" height="20" as="geometry" />
        </mxCell>
        <mxCell id="skjDx-Lhjb7W496M13Kj-608" value="1-7" style="strokeColor=#D4E1F5;" vertex="1" parent="1">
          <mxGeometry x="90.00000000000037" y="310.000000000001" width="40" height="20" as="geometry" />
        </mxCell>
        <mxCell id="skjDx-Lhjb7W496M13Kj-609" value="" style="align=left;strokeColor=#D4E1F5;" vertex="1" parent="1">
          <mxGeometry x="130.00000000000037" y="310.000000000001" width="319.99999999999966" height="20.00000000000003" as="geometry" />
        </mxCell>
        <mxCell id="skjDx-Lhjb7W496M13Kj-610" value="" style="strokeColor=#D4E1F5;" vertex="1" parent="1">
          <mxGeometry x="450.0000000000021" y="310.0000000000009" width="80.00000000000028" height="20" as="geometry" />
        </mxCell>
        <mxCell id="skjDx-Lhjb7W496M13Kj-611" value="" style="strokeColor=#D4E1F5;" vertex="1" parent="1">
          <mxGeometry x="530.0000000000025" y="310.0000000000009" width="80.00000000000028" height="20" as="geometry" />
        </mxCell>
        <mxCell id="skjDx-Lhjb7W496M13Kj-612" value="" style="strokeColor=#D4E1F5;" vertex="1" parent="1">
          <mxGeometry x="610.0000000000018" y="310.00000000000125" width="80.00000000000028" height="20" as="geometry" />
        </mxCell>
        <mxCell id="skjDx-Lhjb7W496M13Kj-613" value="1-8" style="strokeColor=#DEEDFF" vertex="1" parent="1">
          <mxGeometry x="90.00000000000028" y="330.000000000001" width="40" height="20" as="geometry" />
        </mxCell>
        <mxCell id="skjDx-Lhjb7W496M13Kj-614" value="" style="align=left;strokeColor=#DEEDFF" vertex="1" parent="1">
          <mxGeometry x="130.00000000000028" y="330.000000000001" width="319.9999999999997" height="20" as="geometry" />
        </mxCell>
        <mxCell id="skjDx-Lhjb7W496M13Kj-615" value="" style="strokeColor=#DEEDFF" vertex="1" parent="1">
          <mxGeometry x="450.00000000000205" y="330.0000000000009" width="80.00000000000028" height="20" as="geometry" />
        </mxCell>
        <mxCell id="skjDx-Lhjb7W496M13Kj-616" value="" style="strokeColor=#DEEDFF" vertex="1" parent="1">
          <mxGeometry x="530.0000000000023" y="330.0000000000009" width="80.00000000000028" height="20" as="geometry" />
        </mxCell>
        <mxCell id="skjDx-Lhjb7W496M13Kj-617" value="" style="strokeColor=#DEEDFF" vertex="1" parent="1">
          <mxGeometry x="610.0000000000018" y="330.00000000000125" width="80.00000000000028" height="20" as="geometry" />
        </mxCell>
        <mxCell id="skjDx-Lhjb7W496M13Kj-618" value="1-9" style="strokeColor=#DEEDFF" vertex="1" parent="1">
          <mxGeometry x="90.00000000000027" y="350.00000000000125" width="40" height="20" as="geometry" />
        </mxCell>
        <mxCell id="skjDx-Lhjb7W496M13Kj-619" value="" style="align=left;strokeColor=#DEEDFF" vertex="1" parent="1">
          <mxGeometry x="130.00000000000028" y="350.00000000000125" width="319.9999999999997" height="20" as="geometry" />
        </mxCell>
        <mxCell id="skjDx-Lhjb7W496M13Kj-620" value="" style="strokeColor=#DEEDFF" vertex="1" parent="1">
          <mxGeometry x="450.00000000000205" y="350.00000000000114" width="80.00000000000028" height="20" as="geometry" />
        </mxCell>
        <mxCell id="skjDx-Lhjb7W496M13Kj-621" value="" style="strokeColor=#DEEDFF" vertex="1" parent="1">
          <mxGeometry x="530.0000000000023" y="350.00000000000114" width="80.00000000000028" height="20" as="geometry" />
        </mxCell>
        <mxCell id="skjDx-Lhjb7W496M13Kj-622" value="" style="strokeColor=#DEEDFF" vertex="1" parent="1">
          <mxGeometry x="610.0000000000018" y="350.0000000000015" width="80.00000000000028" height="20" as="geometry" />
        </mxCell>
        <mxCell id="skjDx-Lhjb7W496M13Kj-623" value="1-10" style="strokeColor=#DEEDFF" vertex="1" parent="1">
          <mxGeometry x="89.99999999999997" y="370.0000000000016" width="40" height="20" as="geometry" />
        </mxCell>
        <mxCell id="skjDx-Lhjb7W496M13Kj-624" value="" style="align=left;strokeColor=#DEEDFF" vertex="1" parent="1">
          <mxGeometry x="129.99999999999997" y="370.0000000000016" width="320" height="20" as="geometry" />
        </mxCell>
        <mxCell id="skjDx-Lhjb7W496M13Kj-625" value="" style="strokeColor=#DEEDFF" vertex="1" parent="1">
          <mxGeometry x="450.0000000000017" y="370.0000000000015" width="80.00000000000028" height="20" as="geometry" />
        </mxCell>
        <mxCell id="skjDx-Lhjb7W496M13Kj-626" value="" style="strokeColor=#DEEDFF" vertex="1" parent="1">
          <mxGeometry x="530.000000000002" y="370.0000000000015" width="80.00000000000028" height="20" as="geometry" />
        </mxCell>
        <mxCell id="skjDx-Lhjb7W496M13Kj-627" value="" style="strokeColor=#DEEDFF" vertex="1" parent="1">
          <mxGeometry x="610.0000000000015" y="370.0000000000018" width="80.00000000000028" height="20" as="geometry" />
        </mxCell>
        <mxCell id="skjDx-Lhjb7W496M13Kj-628" value="2" style="fillColor=#dae8fc;strokeColor=#D4E1F5;" vertex="1" parent="1">
          <mxGeometry x="89.99999999999999" y="390.00000000000136" width="40" height="20" as="geometry" />
        </mxCell>
        <mxCell id="skjDx-Lhjb7W496M13Kj-629" value="Avoidance" style="align=left;fillColor=#dae8fc;strokeColor=#D4E1F5;" vertex="1" parent="1">
          <mxGeometry x="130" y="390.00000000000136" width="320" height="20" as="geometry" />
        </mxCell>
        <mxCell id="skjDx-Lhjb7W496M13Kj-630" value="Victor" style="fillColor=#dae8fc;strokeColor=#D4E1F5;" vertex="1" parent="1">
          <mxGeometry x="450.0000000000017" y="390.00000000000136" width="80.00000000000028" height="20" as="geometry" />
        </mxCell>
        <mxCell id="skjDx-Lhjb7W496M13Kj-631" value="4 month" style="fillColor=#dae8fc;strokeColor=#D4E1F5;" vertex="1" parent="1">
          <mxGeometry x="530.000000000002" y="390.00000000000136" width="80.00000000000028" height="20" as="geometry" />
        </mxCell>
        <mxCell id="skjDx-Lhjb7W496M13Kj-632" value="9/1" style="fillColor=#dae8fc;strokeColor=#D4E1F5;" vertex="1" parent="1">
          <mxGeometry x="610.0000000000015" y="390.0000000000016" width="80.00000000000028" height="20" as="geometry" />
        </mxCell>
        <mxCell id="skjDx-Lhjb7W496M13Kj-633" value="2-1" style="strokeColor=#DEEDFF" vertex="1" parent="1">
          <mxGeometry x="89.99999999999972" y="410.0000000000018" width="40" height="20" as="geometry" />
        </mxCell>
        <mxCell id="skjDx-Lhjb7W496M13Kj-634" value="" style="align=left;strokeColor=#DEEDFF" vertex="1" parent="1">
          <mxGeometry x="129.99999999999972" y="410.0000000000018" width="320.0000000000003" height="20" as="geometry" />
        </mxCell>
        <mxCell id="skjDx-Lhjb7W496M13Kj-635" value="" style="strokeColor=#DEEDFF" vertex="1" parent="1">
          <mxGeometry x="450.0000000000014" y="410.0000000000018" width="80.00000000000028" height="20" as="geometry" />
        </mxCell>
        <mxCell id="skjDx-Lhjb7W496M13Kj-636" value="" style="strokeColor=#DEEDFF" vertex="1" parent="1">
          <mxGeometry x="530.0000000000018" y="410.0000000000018" width="80.00000000000028" height="20" as="geometry" />
        </mxCell>
        <mxCell id="skjDx-Lhjb7W496M13Kj-637" value="" style="strokeColor=#DEEDFF" vertex="1" parent="1">
          <mxGeometry x="610.0000000000011" y="410.00000000000205" width="80.00000000000028" height="20" as="geometry" />
        </mxCell>
        <mxCell id="skjDx-Lhjb7W496M13Kj-638" value="2-2" style="strokeColor=#DEEDFF;fillColor=#FFFFFF" vertex="1" parent="1">
          <mxGeometry x="89.99999999999963" y="430.0000000000018" width="40" height="20" as="geometry" />
        </mxCell>
        <mxCell id="skjDx-Lhjb7W496M13Kj-639" value="" style="align=left;strokeColor=#DEEDFF;fillColor=#FFFFFF" vertex="1" parent="1">
          <mxGeometry x="129.99999999999963" y="430.0000000000018" width="320.00000000000034" height="20" as="geometry" />
        </mxCell>
        <mxCell id="skjDx-Lhjb7W496M13Kj-640" value="" style="strokeColor=#DEEDFF;fillColor=#FFFFFF" vertex="1" parent="1">
          <mxGeometry x="450.00000000000136" y="430.0000000000018" width="80.00000000000028" height="20" as="geometry" />
        </mxCell>
        <mxCell id="skjDx-Lhjb7W496M13Kj-641" value="" style="strokeColor=#DEEDFF;fillColor=#FFFFFF" vertex="1" parent="1">
          <mxGeometry x="530.0000000000016" y="430.0000000000018" width="80.00000000000028" height="20" as="geometry" />
        </mxCell>
        <mxCell id="skjDx-Lhjb7W496M13Kj-642" value="" style="strokeColor=#DEEDFF;fillColor=#FFFFFF" vertex="1" parent="1">
          <mxGeometry x="610.0000000000011" y="430.00000000000205" width="80.00000000000028" height="20" as="geometry" />
        </mxCell>
        <mxCell id="skjDx-Lhjb7W496M13Kj-643" value="2-3" style="strokeColor=#D4E1F5;" vertex="1" parent="1">
          <mxGeometry x="89.99999999999962" y="450.00000000000205" width="40" height="20" as="geometry" />
        </mxCell>
        <mxCell id="skjDx-Lhjb7W496M13Kj-644" value="" style="align=left;strokeColor=#D4E1F5;" vertex="1" parent="1">
          <mxGeometry x="129.9999999999996" y="450.00000000000205" width="320.0000000000004" height="20" as="geometry" />
        </mxCell>
        <mxCell id="skjDx-Lhjb7W496M13Kj-645" value="" style="strokeColor=#D4E1F5;" vertex="1" parent="1">
          <mxGeometry x="450.00000000000136" y="450.00000000000205" width="80.00000000000028" height="20" as="geometry" />
        </mxCell>
        <mxCell id="skjDx-Lhjb7W496M13Kj-646" value="" style="strokeColor=#D4E1F5;" vertex="1" parent="1">
          <mxGeometry x="530.0000000000016" y="450.00000000000205" width="80.00000000000028" height="20" as="geometry" />
        </mxCell>
        <mxCell id="skjDx-Lhjb7W496M13Kj-647" value="" style="strokeColor=#D4E1F5;" vertex="1" parent="1">
          <mxGeometry x="610.0000000000011" y="450.0000000000023" width="80.00000000000028" height="20" as="geometry" />
        </mxCell>
        <mxCell id="skjDx-Lhjb7W496M13Kj-648" value="2-4" style="strokeColor=#DEEDFF" vertex="1" parent="1">
          <mxGeometry x="90.000000000001" y="470.0000000000023" width="40" height="20" as="geometry" />
        </mxCell>
        <mxCell id="skjDx-Lhjb7W496M13Kj-649" value="" style="align=left;strokeColor=#DEEDFF" vertex="1" parent="1">
          <mxGeometry x="130.000000000001" y="470.0000000000023" width="319.999999999999" height="20" as="geometry" />
        </mxCell>
        <mxCell id="skjDx-Lhjb7W496M13Kj-650" value="" style="strokeColor=#DEEDFF" vertex="1" parent="1">
          <mxGeometry x="450.00000000000273" y="470.0000000000023" width="80.00000000000028" height="20" as="geometry" />
        </mxCell>
        <mxCell id="skjDx-Lhjb7W496M13Kj-651" value="" style="strokeColor=#DEEDFF" vertex="1" parent="1">
          <mxGeometry x="530.000000000003" y="470.0000000000023" width="80.00000000000028" height="20" as="geometry" />
        </mxCell>
        <mxCell id="skjDx-Lhjb7W496M13Kj-652" value="" style="strokeColor=#DEEDFF" vertex="1" parent="1">
          <mxGeometry x="610.0000000000025" y="470.0000000000025" width="80.00000000000028" height="20" as="geometry" />
        </mxCell>
        <mxCell id="skjDx-Lhjb7W496M13Kj-653" value="2-5" style="strokeColor=#DEEDFF" vertex="1" parent="1">
          <mxGeometry x="90.00000000000102" y="490.00000000000216" width="40" height="20" as="geometry" />
        </mxCell>
        <mxCell id="skjDx-Lhjb7W496M13Kj-654" value="" style="align=left;strokeColor=#DEEDFF" vertex="1" parent="1">
          <mxGeometry x="130.00000000000102" y="490.00000000000216" width="319.999999999999" height="20" as="geometry" />
        </mxCell>
        <mxCell id="skjDx-Lhjb7W496M13Kj-655" value="" style="strokeColor=#DEEDFF" vertex="1" parent="1">
          <mxGeometry x="450.00000000000273" y="490.00000000000205" width="80.00000000000028" height="20" as="geometry" />
        </mxCell>
        <mxCell id="skjDx-Lhjb7W496M13Kj-656" value="" style="strokeColor=#DEEDFF" vertex="1" parent="1">
          <mxGeometry x="530.000000000003" y="490.00000000000205" width="80.00000000000028" height="20" as="geometry" />
        </mxCell>
        <mxCell id="skjDx-Lhjb7W496M13Kj-657" value="" style="strokeColor=#DEEDFF" vertex="1" parent="1">
          <mxGeometry x="610.0000000000025" y="490.0000000000024" width="80.00000000000028" height="20" as="geometry" />
        </mxCell>
        <mxCell id="skjDx-Lhjb7W496M13Kj-658" value="2-6" style="strokeColor=#DEEDFF" vertex="1" parent="1">
          <mxGeometry x="90.00000000000074" y="510.0000000000025" width="40" height="20" as="geometry" />
        </mxCell>
        <mxCell id="skjDx-Lhjb7W496M13Kj-659" value="" style="align=left;strokeColor=#DEEDFF" vertex="1" parent="1">
          <mxGeometry x="130.00000000000074" y="510.0000000000025" width="319.99999999999926" height="20" as="geometry" />
        </mxCell>
        <mxCell id="skjDx-Lhjb7W496M13Kj-660" value="" style="strokeColor=#DEEDFF" vertex="1" parent="1">
          <mxGeometry x="450.00000000000244" y="510.0000000000025" width="80.00000000000028" height="20" as="geometry" />
        </mxCell>
        <mxCell id="skjDx-Lhjb7W496M13Kj-661" value="" style="strokeColor=#DEEDFF" vertex="1" parent="1">
          <mxGeometry x="530.0000000000027" y="510.0000000000025" width="80.00000000000028" height="20" as="geometry" />
        </mxCell>
        <mxCell id="skjDx-Lhjb7W496M13Kj-662" value="" style="strokeColor=#DEEDFF" vertex="1" parent="1">
          <mxGeometry x="610.0000000000023" y="510.00000000000273" width="80.00000000000028" height="20" as="geometry" />
        </mxCell>
        <mxCell id="skjDx-Lhjb7W496M13Kj-663" value="2-7" style="strokeColor=#DEEDFF" vertex="1" parent="1">
          <mxGeometry x="90.00000000000065" y="530.0000000000025" width="40" height="20" as="geometry" />
        </mxCell>
        <mxCell id="skjDx-Lhjb7W496M13Kj-664" value="" style="align=left;strokeColor=#DEEDFF" vertex="1" parent="1">
          <mxGeometry x="130.00000000000065" y="530.0000000000025" width="319.9999999999993" height="20" as="geometry" />
        </mxCell>
        <mxCell id="skjDx-Lhjb7W496M13Kj-665" value="" style="strokeColor=#DEEDFF" vertex="1" parent="1">
          <mxGeometry x="450.0000000000024" y="530.0000000000025" width="80.00000000000028" height="20" as="geometry" />
        </mxCell>
        <mxCell id="skjDx-Lhjb7W496M13Kj-666" value="" style="strokeColor=#DEEDFF" vertex="1" parent="1">
          <mxGeometry x="530.0000000000027" y="530.0000000000025" width="80.00000000000028" height="20" as="geometry" />
        </mxCell>
        <mxCell id="skjDx-Lhjb7W496M13Kj-667" value="" style="strokeColor=#DEEDFF" vertex="1" parent="1">
          <mxGeometry x="610.0000000000023" y="530.0000000000027" width="80.00000000000028" height="20" as="geometry" />
        </mxCell>
        <mxCell id="skjDx-Lhjb7W496M13Kj-668" value="2-8" style="strokeColor=#DEEDFF" vertex="1" parent="1">
          <mxGeometry x="90.00000000000065" y="550.0000000000028" width="40" height="20" as="geometry" />
        </mxCell>
        <mxCell id="skjDx-Lhjb7W496M13Kj-669" value="" style="align=left;strokeColor=#DEEDFF" vertex="1" parent="1">
          <mxGeometry x="130.00000000000065" y="550.0000000000028" width="319.9999999999993" height="20" as="geometry" />
        </mxCell>
        <mxCell id="skjDx-Lhjb7W496M13Kj-670" value="" style="strokeColor=#DEEDFF" vertex="1" parent="1">
          <mxGeometry x="450.0000000000024" y="550.0000000000027" width="80.00000000000028" height="20" as="geometry" />
        </mxCell>
        <mxCell id="skjDx-Lhjb7W496M13Kj-671" value="" style="strokeColor=#DEEDFF" vertex="1" parent="1">
          <mxGeometry x="530.0000000000027" y="550.0000000000027" width="80.00000000000028" height="20" as="geometry" />
        </mxCell>
        <mxCell id="skjDx-Lhjb7W496M13Kj-672" value="" style="strokeColor=#DEEDFF" vertex="1" parent="1">
          <mxGeometry x="610.0000000000023" y="550.0000000000031" width="80.00000000000028" height="20" as="geometry" />
        </mxCell>
        <mxCell id="skjDx-Lhjb7W496M13Kj-673" value="2-9" style="strokeColor=#DEEDFF" vertex="1" parent="1">
          <mxGeometry x="90.00000000000136" y="570.0000000000031" width="40" height="20" as="geometry" />
        </mxCell>
        <mxCell id="skjDx-Lhjb7W496M13Kj-674" value="" style="align=left;strokeColor=#DEEDFF" vertex="1" parent="1">
          <mxGeometry x="130.00000000000136" y="570.0000000000031" width="319.99999999999864" height="20" as="geometry" />
        </mxCell>
        <mxCell id="skjDx-Lhjb7W496M13Kj-675" value="" style="strokeColor=#DEEDFF" vertex="1" parent="1">
          <mxGeometry x="450.0000000000031" y="570.000000000003" width="80.00000000000028" height="20" as="geometry" />
        </mxCell>
        <mxCell id="skjDx-Lhjb7W496M13Kj-676" value="" style="strokeColor=#DEEDFF" vertex="1" parent="1">
          <mxGeometry x="530.0000000000034" y="570.000000000003" width="80.00000000000028" height="20" as="geometry" />
        </mxCell>
        <mxCell id="skjDx-Lhjb7W496M13Kj-677" value="" style="strokeColor=#DEEDFF" vertex="1" parent="1">
          <mxGeometry x="610.000000000003" y="570.0000000000033" width="80.00000000000028" height="20" as="geometry" />
        </mxCell>
        <mxCell id="skjDx-Lhjb7W496M13Kj-678" value="2-10" style="strokeColor=#DEEDFF" vertex="1" parent="1">
          <mxGeometry x="90.00000000000139" y="590.000000000003" width="40" height="20" as="geometry" />
        </mxCell>
        <mxCell id="skjDx-Lhjb7W496M13Kj-679" value="" style="align=left;strokeColor=#DEEDFF" vertex="1" parent="1">
          <mxGeometry x="130.0000000000014" y="590.000000000003" width="319.99999999999864" height="20" as="geometry" />
        </mxCell>
        <mxCell id="skjDx-Lhjb7W496M13Kj-680" value="" style="strokeColor=#DEEDFF" vertex="1" parent="1">
          <mxGeometry x="450.0000000000031" y="590.000000000003" width="80.00000000000028" height="20" as="geometry" />
        </mxCell>
        <mxCell id="skjDx-Lhjb7W496M13Kj-681" value="" style="strokeColor=#DEEDFF" vertex="1" parent="1">
          <mxGeometry x="530.0000000000034" y="590.000000000003" width="80.00000000000028" height="20" as="geometry" />
        </mxCell>
        <mxCell id="skjDx-Lhjb7W496M13Kj-682" value="" style="strokeColor=#DEEDFF" vertex="1" parent="1">
          <mxGeometry x="610.000000000003" y="590.0000000000032" width="80.00000000000028" height="20" as="geometry" />
        </mxCell>
        <mxCell id="skjDx-Lhjb7W496M13Kj-683" value="〇" style="strokeColor=#D4E1F5;fillColor=#A1BBE0;" vertex="1" parent="1">
          <mxGeometry x="90.00000000000111" y="610.0000000000034" width="40" height="20" as="geometry" />
        </mxCell>
        <mxCell id="skjDx-Lhjb7W496M13Kj-684" value="Robot Software and Hardware improve" style="align=left;strokeColor=#D4E1F5;fillColor=#A1BBE0;" vertex="1" parent="1">
          <mxGeometry x="130.0000000000011" y="610.0000000000034" width="319.99999999999886" height="20" as="geometry" />
        </mxCell>
        <mxCell id="skjDx-Lhjb7W496M13Kj-685" value="Kanta" style="strokeColor=#D4E1F5;fillColor=#A1BBE0;" vertex="1" parent="1">
          <mxGeometry x="450.00000000000284" y="610.0000000000033" width="80.00000000000028" height="20" as="geometry" />
        </mxCell>
        <mxCell id="skjDx-Lhjb7W496M13Kj-686" value="4 month" style="strokeColor=#D4E1F5;fillColor=#A1BBE0;" vertex="1" parent="1">
          <mxGeometry x="530.0000000000032" y="610.0000000000033" width="80.00000000000028" height="20" as="geometry" />
        </mxCell>
        <mxCell id="skjDx-Lhjb7W496M13Kj-687" value="9/1" style="strokeColor=#D4E1F5;fillColor=#A1BBE0;" vertex="1" parent="1">
          <mxGeometry x="610.0000000000026" y="610.0000000000036" width="80.00000000000028" height="20" as="geometry" />
        </mxCell>
        <mxCell id="skjDx-Lhjb7W496M13Kj-688" value="1" style="fillColor=#dae8fc;strokeColor=#D4E1F5;" vertex="1" parent="1">
          <mxGeometry x="90.00000000000102" y="630.0000000000034" width="40" height="20" as="geometry" />
        </mxCell>
        <mxCell id="skjDx-Lhjb7W496M13Kj-689" value="Hardware" style="align=left;fillColor=#dae8fc;strokeColor=#D4E1F5;" vertex="1" parent="1">
          <mxGeometry x="130.00000000000102" y="630.0000000000034" width="319.999999999999" height="20" as="geometry" />
        </mxCell>
        <mxCell id="skjDx-Lhjb7W496M13Kj-690" value="Kanta" style="fillColor=#dae8fc;strokeColor=#D4E1F5;" vertex="1" parent="1">
          <mxGeometry x="450.0000000000028" y="630.0000000000033" width="80.00000000000028" height="20" as="geometry" />
        </mxCell>
        <mxCell id="skjDx-Lhjb7W496M13Kj-691" value="1 month" style="fillColor=#dae8fc;strokeColor=#D4E1F5;" vertex="1" parent="1">
          <mxGeometry x="530.0000000000031" y="630.0000000000033" width="80.00000000000028" height="20" as="geometry" />
        </mxCell>
        <mxCell id="skjDx-Lhjb7W496M13Kj-692" value="9/1" style="fillColor=#dae8fc;strokeColor=#D4E1F5;" vertex="1" parent="1">
          <mxGeometry x="610.0000000000026" y="630.0000000000036" width="80.00000000000028" height="20" as="geometry" />
        </mxCell>
        <mxCell id="skjDx-Lhjb7W496M13Kj-693" value="1-1" style="strokeColor=#DEEDFF" vertex="1" parent="1">
          <mxGeometry x="90.00000000000102" y="650.0000000000036" width="40" height="20" as="geometry" />
        </mxCell>
        <mxCell id="skjDx-Lhjb7W496M13Kj-694" value="fabool laser co2 Environmental setting" style="align=left;strokeColor=#DEEDFF" vertex="1" parent="1">
          <mxGeometry x="130.000000000001" y="650.0000000000036" width="319.999999999999" height="20" as="geometry" />
        </mxCell>
        <mxCell id="skjDx-Lhjb7W496M13Kj-695" value="Kanta" style="strokeColor=#DEEDFF" vertex="1" parent="1">
          <mxGeometry x="450.0000000000028" y="650.0000000000035" width="80.00000000000028" height="20" as="geometry" />
        </mxCell>
        <mxCell id="skjDx-Lhjb7W496M13Kj-696" value="1 week" style="strokeColor=#DEEDFF" vertex="1" parent="1">
          <mxGeometry x="530.0000000000031" y="650.0000000000035" width="80.00000000000028" height="20" as="geometry" />
        </mxCell>
        <mxCell id="skjDx-Lhjb7W496M13Kj-697" value="" style="strokeColor=#DEEDFF" vertex="1" parent="1">
          <mxGeometry x="610.0000000000026" y="650.0000000000039" width="80.00000000000028" height="20" as="geometry" />
        </mxCell>
        <mxCell id="skjDx-Lhjb7W496M13Kj-698" value="" style="strokeColor=#DEEDFF" vertex="1" parent="1">
          <mxGeometry x="710" y="150" width="20" height="660" as="geometry" />
        </mxCell>
        <mxCell id="skjDx-Lhjb7W496M13Kj-699" value="" style="strokeColor=#DEEDFF" vertex="1" parent="1">
          <mxGeometry x="730" y="150" width="20" height="660" as="geometry" />
        </mxCell>
        <mxCell id="skjDx-Lhjb7W496M13Kj-700" value="" style="strokeColor=#DEEDFF" vertex="1" parent="1">
          <mxGeometry x="750" y="150" width="20" height="660" as="geometry" />
        </mxCell>
        <mxCell id="skjDx-Lhjb7W496M13Kj-701" value="" style="strokeColor=#DEEDFF" vertex="1" parent="1">
          <mxGeometry x="770" y="150" width="20" height="660" as="geometry" />
        </mxCell>
        <mxCell id="skjDx-Lhjb7W496M13Kj-702" value="" style="strokeColor=#D4E1F5;" vertex="1" parent="1">
          <mxGeometry x="790" y="150" width="20" height="660" as="geometry" />
        </mxCell>
        <mxCell id="skjDx-Lhjb7W496M13Kj-703" value="" style="strokeColor=#D4E1F5;" vertex="1" parent="1">
          <mxGeometry x="810" y="150" width="20" height="660" as="geometry" />
        </mxCell>
        <mxCell id="skjDx-Lhjb7W496M13Kj-704" value="" style="strokeColor=#DEEDFF" vertex="1" parent="1">
          <mxGeometry x="830" y="150" width="20" height="660" as="geometry" />
        </mxCell>
        <mxCell id="skjDx-Lhjb7W496M13Kj-705" value="" style="strokeColor=#DEEDFF" vertex="1" parent="1">
          <mxGeometry x="850" y="150" width="20" height="660" as="geometry" />
        </mxCell>
        <mxCell id="skjDx-Lhjb7W496M13Kj-706" value="" style="strokeColor=#DEEDFF" vertex="1" parent="1">
          <mxGeometry x="870" y="150" width="20" height="660" as="geometry" />
        </mxCell>
        <mxCell id="skjDx-Lhjb7W496M13Kj-707" value="" style="strokeColor=#DEEDFF" vertex="1" parent="1">
          <mxGeometry x="890" y="150" width="20" height="660" as="geometry" />
        </mxCell>
        <mxCell id="skjDx-Lhjb7W496M13Kj-708" value="" style="strokeColor=#6c8ebf;fillColor=#dae8fc;" vertex="1" parent="1">
          <mxGeometry x="910" y="150" width="20" height="660" as="geometry" />
        </mxCell>
        <mxCell id="skjDx-Lhjb7W496M13Kj-709" value="" style="strokeColor=#6c8ebf;fillColor=#dae8fc;" vertex="1" parent="1">
          <mxGeometry x="930" y="150" width="20" height="660" as="geometry" />
        </mxCell>
        <mxCell id="skjDx-Lhjb7W496M13Kj-710" value="" style="strokeColor=#A9C4EB;" vertex="1" parent="1">
          <mxGeometry x="950" y="150" width="20" height="660" as="geometry" />
        </mxCell>
        <mxCell id="skjDx-Lhjb7W496M13Kj-711" value="" style="strokeColor=#DEEDFF" vertex="1" parent="1">
          <mxGeometry x="970" y="150" width="20" height="660" as="geometry" />
        </mxCell>
        <mxCell id="skjDx-Lhjb7W496M13Kj-712" value="" style="strokeColor=#DEEDFF" vertex="1" parent="1">
          <mxGeometry x="990" y="150" width="20" height="660" as="geometry" />
        </mxCell>
        <mxCell id="skjDx-Lhjb7W496M13Kj-713" value="" style="strokeColor=#DEEDFF" vertex="1" parent="1">
          <mxGeometry x="1010" y="150" width="20" height="660" as="geometry" />
        </mxCell>
        <mxCell id="skjDx-Lhjb7W496M13Kj-714" value="" style="strokeColor=#DEEDFF" vertex="1" parent="1">
          <mxGeometry x="1030" y="150" width="20" height="660" as="geometry" />
        </mxCell>
        <mxCell id="skjDx-Lhjb7W496M13Kj-715" value="" style="strokeColor=#DEEDFF" vertex="1" parent="1">
          <mxGeometry x="1050" y="150" width="20" height="660" as="geometry" />
        </mxCell>
        <mxCell id="skjDx-Lhjb7W496M13Kj-716" value="" style="strokeColor=#D4E1F5;" vertex="1" parent="1">
          <mxGeometry x="1070" y="150" width="20" height="660" as="geometry" />
        </mxCell>
        <mxCell id="skjDx-Lhjb7W496M13Kj-717" value="" style="strokeColor=#D4E1F5;" vertex="1" parent="1">
          <mxGeometry x="1090" y="150" width="20" height="660" as="geometry" />
        </mxCell>
        <mxCell id="skjDx-Lhjb7W496M13Kj-718" value="" style="strokeColor=#DEEDFF" vertex="1" parent="1">
          <mxGeometry x="1110" y="150" width="20" height="660" as="geometry" />
        </mxCell>
        <mxCell id="skjDx-Lhjb7W496M13Kj-719" value="" style="strokeColor=#DEEDFF" vertex="1" parent="1">
          <mxGeometry x="1130" y="150" width="20" height="660" as="geometry" />
        </mxCell>
        <mxCell id="skjDx-Lhjb7W496M13Kj-720" value="" style="strokeColor=#6c8ebf;fillColor=#dae8fc;" vertex="1" parent="1">
          <mxGeometry x="1150" y="150" width="20" height="660" as="geometry" />
        </mxCell>
        <mxCell id="skjDx-Lhjb7W496M13Kj-721" value="" style="strokeColor=#6c8ebf;fillColor=#dae8fc;" vertex="1" parent="1">
          <mxGeometry x="1170" y="150" width="20" height="660" as="geometry" />
        </mxCell>
        <mxCell id="skjDx-Lhjb7W496M13Kj-722" value="" style="strokeColor=#DEEDFF" vertex="1" parent="1">
          <mxGeometry x="1190" y="150" width="20" height="660" as="geometry" />
        </mxCell>
        <mxCell id="skjDx-Lhjb7W496M13Kj-723" value="" style="strokeColor=#D4E1F5;" vertex="1" parent="1">
          <mxGeometry x="1210" y="150" width="20" height="660" as="geometry" />
        </mxCell>
        <mxCell id="skjDx-Lhjb7W496M13Kj-724" value="" style="strokeColor=#D4E1F5;" vertex="1" parent="1">
          <mxGeometry x="1230" y="150" width="20" height="660" as="geometry" />
        </mxCell>
        <mxCell id="skjDx-Lhjb7W496M13Kj-725" value="" style="strokeColor=#DEEDFF" vertex="1" parent="1">
          <mxGeometry x="1250" y="150" width="20" height="660" as="geometry" />
        </mxCell>
        <mxCell id="skjDx-Lhjb7W496M13Kj-726" value="" style="strokeColor=#DEEDFF" vertex="1" parent="1">
          <mxGeometry x="1270" y="150" width="20" height="660" as="geometry" />
        </mxCell>
        <mxCell id="skjDx-Lhjb7W496M13Kj-727" value="" style="strokeColor=#DEEDFF" vertex="1" parent="1">
          <mxGeometry x="1290" y="150" width="20" height="660" as="geometry" />
        </mxCell>
        <mxCell id="skjDx-Lhjb7W496M13Kj-728" value="" style="strokeColor=#DEEDFF" vertex="1" parent="1">
          <mxGeometry x="1310" y="150" width="20" height="660" as="geometry" />
        </mxCell>
        <mxCell id="skjDx-Lhjb7W496M13Kj-729" value="" style="strokeColor=#DEEDFF" vertex="1" parent="1">
          <mxGeometry x="1330" y="150" width="20" height="660" as="geometry" />
        </mxCell>
        <mxCell id="skjDx-Lhjb7W496M13Kj-730" value="" style="strokeColor=#D4E1F5;" vertex="1" parent="1">
          <mxGeometry x="1350" y="150" width="20" height="660" as="geometry" />
        </mxCell>
        <mxCell id="skjDx-Lhjb7W496M13Kj-731" value="" style="strokeColor=#D4E1F5;" vertex="1" parent="1">
          <mxGeometry x="1370" y="150" width="20" height="660" as="geometry" />
        </mxCell>
        <mxCell id="skjDx-Lhjb7W496M13Kj-732" value="" style="strokeColor=#6c8ebf;fillColor=#dae8fc;" vertex="1" parent="1">
          <mxGeometry x="1390" y="150" width="20" height="660" as="geometry" />
        </mxCell>
        <mxCell id="skjDx-Lhjb7W496M13Kj-733" value="" style="strokeColor=#DEEDFF" vertex="1" parent="1">
          <mxGeometry x="1410" y="150" width="20" height="660" as="geometry" />
        </mxCell>
        <mxCell id="skjDx-Lhjb7W496M13Kj-734" value="" style="strokeColor=#DEEDFF" vertex="1" parent="1">
          <mxGeometry x="1430" y="150" width="20" height="660" as="geometry" />
        </mxCell>
        <mxCell id="skjDx-Lhjb7W496M13Kj-735" value="" style="strokeColor=#DEEDFF" vertex="1" parent="1">
          <mxGeometry x="1450" y="150" width="20" height="660" as="geometry" />
        </mxCell>
        <mxCell id="skjDx-Lhjb7W496M13Kj-736" value="" style="strokeColor=#DEEDFF" vertex="1" parent="1">
          <mxGeometry x="1470" y="150" width="20" height="660" as="geometry" />
        </mxCell>
        <mxCell id="skjDx-Lhjb7W496M13Kj-737" value="" style="strokeColor=#D4E1F5;" vertex="1" parent="1">
          <mxGeometry x="1490" y="150" width="20" height="660" as="geometry" />
        </mxCell>
        <mxCell id="skjDx-Lhjb7W496M13Kj-738" value="" style="strokeColor=#D4E1F5;" vertex="1" parent="1">
          <mxGeometry x="1510" y="150" width="20" height="660" as="geometry" />
        </mxCell>
        <mxCell id="skjDx-Lhjb7W496M13Kj-739" value="" style="strokeColor=#DEEDFF" vertex="1" parent="1">
          <mxGeometry x="1530" y="150" width="20" height="660" as="geometry" />
        </mxCell>
        <mxCell id="skjDx-Lhjb7W496M13Kj-740" value="" style="strokeColor=#DEEDFF" vertex="1" parent="1">
          <mxGeometry x="1550" y="150" width="20" height="660" as="geometry" />
        </mxCell>
        <mxCell id="skjDx-Lhjb7W496M13Kj-741" value="" style="strokeColor=#DEEDFF" vertex="1" parent="1">
          <mxGeometry x="1570" y="150" width="20" height="660" as="geometry" />
        </mxCell>
        <mxCell id="skjDx-Lhjb7W496M13Kj-742" value="" style="strokeColor=#DEEDFF" vertex="1" parent="1">
          <mxGeometry x="1590" y="150" width="20" height="660" as="geometry" />
        </mxCell>
        <mxCell id="skjDx-Lhjb7W496M13Kj-743" value="" style="strokeColor=#DEEDFF" vertex="1" parent="1">
          <mxGeometry x="1610" y="150" width="20" height="660" as="geometry" />
        </mxCell>
        <mxCell id="skjDx-Lhjb7W496M13Kj-744" value="" style="strokeColor=#D4E1F5;" vertex="1" parent="1">
          <mxGeometry x="1630" y="150" width="20" height="660" as="geometry" />
        </mxCell>
        <mxCell id="skjDx-Lhjb7W496M13Kj-746" value="Task Name" style="fillColor=#23445D;strokeColor=#FFFFFF;strokeWidth=2;fontColor=#FFFFFF;fontStyle=1" vertex="1" parent="1">
          <mxGeometry x="130" y="110" width="320" height="40" as="geometry" />
        </mxCell>
        <mxCell id="skjDx-Lhjb7W496M13Kj-747" value="" style="fillColor=#23445D;strokeColor=#FFFFFF;strokeWidth=2;fontColor=#FFFFFF;fontStyle=1" vertex="1" parent="1">
          <mxGeometry x="90" y="110" width="40" height="40" as="geometry" />
        </mxCell>
        <mxCell id="skjDx-Lhjb7W496M13Kj-748" value="September" style="fillColor=#23445D;strokeColor=#FFFFFF;strokeWidth=2;fontColor=#FFFFFF;fontStyle=1" vertex="1" parent="1">
          <mxGeometry x="690" y="110" width="240" height="20" as="geometry" />
        </mxCell>
        <mxCell id="skjDx-Lhjb7W496M13Kj-749" value="1 week" style="fillColor=#23445D;strokeColor=#FFFFFF;strokeWidth=2;fontColor=#FFFFFF;fontStyle=1" vertex="1" parent="1">
          <mxGeometry x="690" y="130" width="60" height="20" as="geometry" />
        </mxCell>
        <mxCell id="skjDx-Lhjb7W496M13Kj-750" value="担当 " style="fillColor=#23445D;strokeColor=#FFFFFF;strokeWidth=2;fontColor=#FFFFFF;fontStyle=1" vertex="1" parent="1">
          <mxGeometry x="450.00000000000176" y="110.00000000000006" width="80.00000000000006" height="40.00000000000001" as="geometry" />
        </mxCell>
        <mxCell id="skjDx-Lhjb7W496M13Kj-751" value="期間" style="fillColor=#23445D;strokeColor=#FFFFFF;strokeWidth=2;fontColor=#FFFFFF;fontStyle=1" vertex="1" parent="1">
          <mxGeometry x="530.0000000000018" y="110.00000000000006" width="80.00000000000006" height="40.00000000000001" as="geometry" />
        </mxCell>
        <mxCell id="skjDx-Lhjb7W496M13Kj-752" value="開始日" style="fillColor=#23445D;strokeColor=#FFFFFF;strokeWidth=2;fontColor=#FFFFFF;fontStyle=1" vertex="1" parent="1">
          <mxGeometry x="610" y="110" width="80" height="40" as="geometry" />
        </mxCell>
        <mxCell id="skjDx-Lhjb7W496M13Kj-765" value="" style="shape=mxgraph.flowchart.process;strokeColor=#6c8ebf;strokeWidth=2;opacity=100;verticalAlign=top;fillColor=#66B2FF;" vertex="1" parent="1">
          <mxGeometry x="690" y="150" width="960" height="20" as="geometry" />
        </mxCell>
        <mxCell id="skjDx-Lhjb7W496M13Kj-790" value="タスク完了" style="rounded=0;whiteSpace=wrap;html=1;verticalAlign=middle;fillColor=#33FF99;strokeColor=#82B366;" vertex="1" parent="1">
          <mxGeometry x="90" y="70" width="80" height="20" as="geometry" />
        </mxCell>
        <mxCell id="skjDx-Lhjb7W496M13Kj-791" value="進行中" style="rounded=0;whiteSpace=wrap;html=1;verticalAlign=middle;strokeColor=#6c8ebf;fillColor=#66B2FF;" vertex="1" parent="1">
          <mxGeometry x="180" y="70" width="80" height="20" as="geometry" />
        </mxCell>
        <mxCell id="skjDx-Lhjb7W496M13Kj-792" value="問題アリ" style="rounded=0;whiteSpace=wrap;html=1;verticalAlign=middle;strokeColor=#d6b656;fillColor=#FFFF66;" vertex="1" parent="1">
          <mxGeometry x="270" y="70" width="80" height="20" as="geometry" />
        </mxCell>
        <mxCell id="skjDx-Lhjb7W496M13Kj-793" value="中止中" style="rounded=0;whiteSpace=wrap;html=1;verticalAlign=middle;strokeColor=#b85450;fillColor=#FF6666;" vertex="1" parent="1">
          <mxGeometry x="360" y="70" width="80" height="20" as="geometry" />
        </mxCell>
        <mxCell id="skjDx-Lhjb7W496M13Kj-794" value="1-2" style="strokeColor=#DEEDFF" vertex="1" parent="1">
          <mxGeometry x="90.00000000000102" y="670.0000000000036" width="40" height="20" as="geometry" />
        </mxCell>
        <mxCell id="skjDx-Lhjb7W496M13Kj-795" value="Create new Acrylic plate" style="align=left;strokeColor=#DEEDFF" vertex="1" parent="1">
          <mxGeometry x="130.000000000001" y="670.0000000000036" width="319.999999999999" height="20" as="geometry" />
        </mxCell>
        <mxCell id="skjDx-Lhjb7W496M13Kj-796" value="Kanta" style="strokeColor=#DEEDFF" vertex="1" parent="1">
          <mxGeometry x="450.0000000000028" y="670.0000000000035" width="80.00000000000028" height="20" as="geometry" />
        </mxCell>
        <mxCell id="skjDx-Lhjb7W496M13Kj-797" value="1days" style="strokeColor=#DEEDFF" vertex="1" parent="1">
          <mxGeometry x="530.0000000000031" y="670.0000000000035" width="80.00000000000028" height="20" as="geometry" />
        </mxCell>
        <mxCell id="skjDx-Lhjb7W496M13Kj-798" value="" style="strokeColor=#DEEDFF" vertex="1" parent="1">
          <mxGeometry x="610.0000000000026" y="670.0000000000039" width="80.00000000000028" height="20" as="geometry" />
        </mxCell>
        <mxCell id="skjDx-Lhjb7W496M13Kj-799" value="" style="rounded=0;whiteSpace=wrap;html=1;verticalAlign=middle;strokeColor=#6c8ebf;fillColor=#66B2FF;" vertex="1" parent="1">
          <mxGeometry x="510" y="70" width="19" height="20" as="geometry" />
        </mxCell>
        <mxCell id="skjDx-Lhjb7W496M13Kj-800" value="1-3" style="strokeColor=#DEEDFF" vertex="1" parent="1">
          <mxGeometry x="90.00000000000102" y="690.0000000000036" width="40" height="20" as="geometry" />
        </mxCell>
        <mxCell id="skjDx-Lhjb7W496M13Kj-801" value="Thermophone sound pressure and resistance experiments" style="align=left;strokeColor=#DEEDFF" vertex="1" parent="1">
          <mxGeometry x="130.000000000001" y="690.0000000000036" width="319.999999999999" height="20" as="geometry" />
        </mxCell>
        <mxCell id="skjDx-Lhjb7W496M13Kj-802" value="Kanta" style="strokeColor=#DEEDFF" vertex="1" parent="1">
          <mxGeometry x="450.0000000000028" y="690.0000000000035" width="80.00000000000028" height="20" as="geometry" />
        </mxCell>
        <mxCell id="skjDx-Lhjb7W496M13Kj-803" value="2 days" style="strokeColor=#DEEDFF" vertex="1" parent="1">
          <mxGeometry x="530.0000000000031" y="690.0000000000035" width="80.00000000000028" height="20" as="geometry" />
        </mxCell>
        <mxCell id="skjDx-Lhjb7W496M13Kj-804" value="" style="strokeColor=#DEEDFF" vertex="1" parent="1">
          <mxGeometry x="610.0000000000026" y="690.0000000000039" width="80.00000000000028" height="20" as="geometry" />
        </mxCell>
        <mxCell id="skjDx-Lhjb7W496M13Kj-805" value="1-4" style="strokeColor=#DEEDFF" vertex="1" parent="1">
          <mxGeometry x="90.00000000000102" y="710.0000000000036" width="40" height="20" as="geometry" />
        </mxCell>
        <mxCell id="skjDx-Lhjb7W496M13Kj-806" value="Make robot operations the same" style="align=left;strokeColor=#DEEDFF" vertex="1" parent="1">
          <mxGeometry x="130.000000000001" y="710.0000000000036" width="319.999999999999" height="20" as="geometry" />
        </mxCell>
        <mxCell id="skjDx-Lhjb7W496M13Kj-807" value="Kanta" style="strokeColor=#DEEDFF" vertex="1" parent="1">
          <mxGeometry x="450.0000000000028" y="710.0000000000035" width="80.00000000000028" height="20" as="geometry" />
        </mxCell>
        <mxCell id="skjDx-Lhjb7W496M13Kj-808" value="2 week" style="strokeColor=#DEEDFF" vertex="1" parent="1">
          <mxGeometry x="530.0000000000031" y="710.0000000000035" width="80.00000000000028" height="20" as="geometry" />
        </mxCell>
        <mxCell id="skjDx-Lhjb7W496M13Kj-809" value="" style="strokeColor=#DEEDFF" vertex="1" parent="1">
          <mxGeometry x="610.0000000000026" y="710.0000000000039" width="80.00000000000028" height="20" as="geometry" />
        </mxCell>
        <mxCell id="skjDx-Lhjb7W496M13Kj-810" value="" style="rounded=0;whiteSpace=wrap;html=1;verticalAlign=middle;strokeColor=#82B366;fillColor=#66FFB3;" vertex="1" parent="1">
          <mxGeometry x="480" y="70" width="19" height="20" as="geometry" />
        </mxCell>
        <mxCell id="skjDx-Lhjb7W496M13Kj-811" value="" style="rounded=0;whiteSpace=wrap;html=1;verticalAlign=middle;strokeColor=#d6b656;fillColor=#FFFF66;" vertex="1" parent="1">
          <mxGeometry x="540" y="70" width="19" height="20" as="geometry" />
        </mxCell>
        <mxCell id="skjDx-Lhjb7W496M13Kj-812" value="" style="rounded=0;whiteSpace=wrap;html=1;verticalAlign=middle;strokeColor=#b85450;fillColor=#FF6666;" vertex="1" parent="1">
          <mxGeometry x="570" y="70" width="19" height="20" as="geometry" />
        </mxCell>
        <mxCell id="skjDx-Lhjb7W496M13Kj-814" value="2" style="strokeColor=#6c8ebf;fillColor=#dae8fc;" vertex="1" parent="1">
          <mxGeometry x="90.00000000000102" y="730.0000000000036" width="40" height="20" as="geometry" />
        </mxCell>
        <mxCell id="skjDx-Lhjb7W496M13Kj-815" value="Software" style="align=left;strokeColor=#6c8ebf;fillColor=#dae8fc;" vertex="1" parent="1">
          <mxGeometry x="130.000000000001" y="730.0000000000036" width="319.999999999999" height="20" as="geometry" />
        </mxCell>
        <mxCell id="skjDx-Lhjb7W496M13Kj-816" value="Kanta" style="strokeColor=#6c8ebf;fillColor=#dae8fc;" vertex="1" parent="1">
          <mxGeometry x="450.0000000000028" y="730.0000000000035" width="80.00000000000028" height="20" as="geometry" />
        </mxCell>
        <mxCell id="skjDx-Lhjb7W496M13Kj-817" value="" style="strokeColor=#6c8ebf;fillColor=#dae8fc;" vertex="1" parent="1">
          <mxGeometry x="530.0000000000031" y="730.0000000000035" width="80.00000000000028" height="20" as="geometry" />
        </mxCell>
        <mxCell id="skjDx-Lhjb7W496M13Kj-818" value="" style="strokeColor=#6c8ebf;fillColor=#dae8fc;" vertex="1" parent="1">
          <mxGeometry x="610.0000000000026" y="730.0000000000039" width="80.00000000000028" height="20" as="geometry" />
        </mxCell>
        <mxCell id="skjDx-Lhjb7W496M13Kj-819" value="2-1" style="strokeColor=#DEEDFF" vertex="1" parent="1">
          <mxGeometry x="90.00000000000102" y="750.0000000000036" width="40" height="20" as="geometry" />
        </mxCell>
        <mxCell id="skjDx-Lhjb7W496M13Kj-820" value="" style="align=left;strokeColor=#DEEDFF" vertex="1" parent="1">
          <mxGeometry x="130.000000000001" y="750.0000000000036" width="319.999999999999" height="20" as="geometry" />
        </mxCell>
        <mxCell id="skjDx-Lhjb7W496M13Kj-821" value="Kanta" style="strokeColor=#DEEDFF" vertex="1" parent="1">
          <mxGeometry x="450.0000000000028" y="750.0000000000035" width="80.00000000000028" height="20" as="geometry" />
        </mxCell>
        <mxCell id="skjDx-Lhjb7W496M13Kj-822" value="" style="strokeColor=#DEEDFF" vertex="1" parent="1">
          <mxGeometry x="530.0000000000031" y="750.0000000000035" width="80.00000000000028" height="20" as="geometry" />
        </mxCell>
        <mxCell id="skjDx-Lhjb7W496M13Kj-823" value="" style="strokeColor=#DEEDFF" vertex="1" parent="1">
          <mxGeometry x="610.0000000000026" y="750.0000000000039" width="80.00000000000028" height="20" as="geometry" />
        </mxCell>
        <mxCell id="skjDx-Lhjb7W496M13Kj-824" value="2-2" style="strokeColor=#DEEDFF" vertex="1" parent="1">
          <mxGeometry x="90.00000000000102" y="770.0000000000036" width="40" height="20" as="geometry" />
        </mxCell>
        <mxCell id="skjDx-Lhjb7W496M13Kj-825" value="" style="align=left;strokeColor=#DEEDFF" vertex="1" parent="1">
          <mxGeometry x="130.000000000001" y="770.0000000000036" width="319.999999999999" height="20" as="geometry" />
        </mxCell>
        <mxCell id="skjDx-Lhjb7W496M13Kj-826" value="Kanta" style="strokeColor=#DEEDFF" vertex="1" parent="1">
          <mxGeometry x="450.0000000000028" y="770.0000000000035" width="80.00000000000028" height="20" as="geometry" />
        </mxCell>
        <mxCell id="skjDx-Lhjb7W496M13Kj-827" value="" style="strokeColor=#DEEDFF" vertex="1" parent="1">
          <mxGeometry x="530.0000000000031" y="770.0000000000035" width="80.00000000000028" height="20" as="geometry" />
        </mxCell>
        <mxCell id="skjDx-Lhjb7W496M13Kj-828" value="" style="strokeColor=#DEEDFF" vertex="1" parent="1">
          <mxGeometry x="610.0000000000026" y="770.0000000000039" width="80.00000000000028" height="20" as="geometry" />
        </mxCell>
        <mxCell id="skjDx-Lhjb7W496M13Kj-829" value="2-3" style="strokeColor=#DEEDFF" vertex="1" parent="1">
          <mxGeometry x="90.00000000000102" y="790.0000000000036" width="40" height="20" as="geometry" />
        </mxCell>
        <mxCell id="skjDx-Lhjb7W496M13Kj-830" value="" style="align=left;strokeColor=#DEEDFF" vertex="1" parent="1">
          <mxGeometry x="130.000000000001" y="790.0000000000036" width="319.999999999999" height="20" as="geometry" />
        </mxCell>
        <mxCell id="skjDx-Lhjb7W496M13Kj-831" value="Kanta" style="strokeColor=#DEEDFF" vertex="1" parent="1">
          <mxGeometry x="450.0000000000028" y="790.0000000000035" width="80.00000000000028" height="20" as="geometry" />
        </mxCell>
        <mxCell id="skjDx-Lhjb7W496M13Kj-832" value="" style="strokeColor=#DEEDFF" vertex="1" parent="1">
          <mxGeometry x="530.0000000000031" y="790.0000000000035" width="80.00000000000028" height="20" as="geometry" />
        </mxCell>
        <mxCell id="skjDx-Lhjb7W496M13Kj-833" value="" style="strokeColor=#DEEDFF" vertex="1" parent="1">
          <mxGeometry x="610.0000000000026" y="790.0000000000039" width="80.00000000000028" height="20" as="geometry" />
        </mxCell>
      </root>
    </mxGraphModel>
  </diagram>
</mxfile>
